<svg width="160" height="30" viewBox="0 0 160 30" fill="none" xmlns="http://www.w3.org/2000/svg">
<rect width="160" height="30" rx="3" fill="#4E9F0D"/>
<path d="M40.08 10.46C39.88 10.2333 39.6467 10.0333 39.38 9.86C39.1133 9.67333 38.8133 9.51333 38.48 9.38C38.1467 9.24667 37.7867 9.14 37.4 9.06C37.0267 8.98 36.6267 8.94 36.2 8.94C34.96 8.94 34.0467 9.18 33.46 9.66C32.8867 10.1267 32.6 10.7667 32.6 11.58C32.6 12.14 32.7333 12.58 33 12.9C33.28 13.22 33.7133 13.48 34.3 13.68C34.8867 13.88 35.6333 14.0867 36.54 14.3C37.5533 14.5133 38.4267 14.7667 39.16 15.06C39.8933 15.3533 40.46 15.7533 40.86 16.26C41.26 16.7533 41.46 17.4267 41.46 18.28C41.46 18.9333 41.3333 19.5 41.08 19.98C40.8267 20.46 40.4733 20.86 40.02 21.18C39.5667 21.5 39.0267 21.74 38.4 21.9C37.7733 22.0467 37.0867 22.12 36.34 22.12C35.6067 22.12 34.9 22.0467 34.22 21.9C33.5533 21.74 32.92 21.5133 32.32 21.22C31.72 20.9133 31.16 20.5267 30.64 20.06L31.34 18.92C31.5933 19.1867 31.8933 19.44 32.24 19.68C32.6 19.9067 32.9933 20.1133 33.42 20.3C33.86 20.4867 34.3267 20.6333 34.82 20.74C35.3267 20.8333 35.8467 20.88 36.38 20.88C37.5133 20.88 38.3933 20.6733 39.02 20.26C39.66 19.8467 39.98 19.2333 39.98 18.42C39.98 17.8333 39.82 17.3667 39.5 17.02C39.18 16.66 38.7 16.3667 38.06 16.14C37.42 15.9133 36.6333 15.6933 35.7 15.48C34.7133 15.2533 33.88 15 33.2 14.72C32.52 14.44 32.0067 14.0733 31.66 13.62C31.3267 13.1533 31.16 12.54 31.16 11.78C31.16 10.9 31.3733 10.16 31.8 9.56C32.24 8.94667 32.84 8.48667 33.6 8.18C34.36 7.86 35.2333 7.7 36.22 7.7C36.8467 7.7 37.4267 7.76667 37.96 7.9C38.5067 8.02 39.0067 8.2 39.46 8.44C39.9267 8.68 40.36 8.98 40.76 9.34L40.08 10.46ZM53.9889 9.04H48.9289V22H47.5289V9.04H42.4689V7.8H53.9889V9.04ZM56.1159 22V7.8H62.1159C62.7293 7.8 63.2893 7.92667 63.7959 8.18C64.3026 8.43333 64.7426 8.78 65.1159 9.22C65.5026 9.64667 65.7959 10.1267 65.9959 10.66C66.2093 11.18 66.3159 11.7133 66.3159 12.26C66.3159 12.94 66.1826 13.58 65.9159 14.18C65.6626 14.78 65.2959 15.2867 64.8159 15.7C64.3493 16.1133 63.7959 16.3867 63.1559 16.52L66.6359 22H65.0559L61.7159 16.76H57.5159V22H56.1159ZM57.5159 15.52H62.1559C62.7159 15.52 63.2026 15.3667 63.6159 15.06C64.0293 14.7533 64.3493 14.3533 64.5759 13.86C64.8026 13.3533 64.9159 12.82 64.9159 12.26C64.9159 11.6867 64.7826 11.16 64.5159 10.68C64.2626 10.1867 63.9159 9.79333 63.4759 9.5C63.0493 9.19333 62.5693 9.04 62.0359 9.04H57.5159V15.52ZM78.7223 20.76V22H69.1823V7.8H78.5423V9.04H70.5823V14.16H77.5223V15.34H70.5823V20.76H78.7223ZM90.9098 20.76V22H81.3698V7.8H90.7298V9.04H82.7698V14.16H89.7098V15.34H82.7698V20.76H90.9098ZM103.637 9.04H98.5773V22H97.1773V9.04H92.1173V7.8H103.637V9.04ZM114.786 18.06C114.786 18.8867 114.552 19.6067 114.086 20.22C113.632 20.8333 113.026 21.3133 112.266 21.66C111.519 21.9933 110.699 22.16 109.806 22.16C108.859 22.16 108.019 21.9733 107.286 21.6C106.552 21.2133 105.972 20.7067 105.546 20.08C105.132 19.4533 104.926 18.7533 104.926 17.98C104.926 17.38 105.066 16.84 105.346 16.36C105.639 15.8667 105.999 15.4533 106.426 15.12C106.866 14.7867 107.312 14.5467 107.766 14.4C107.352 14.2267 106.966 14 106.606 13.72C106.246 13.4267 105.959 13.0867 105.746 12.7C105.532 12.3133 105.426 11.8867 105.426 11.42C105.426 10.8333 105.552 10.32 105.806 9.88C106.072 9.42667 106.419 9.04667 106.846 8.74C107.272 8.42 107.746 8.18667 108.266 8.04C108.799 7.88 109.332 7.8 109.866 7.8C110.386 7.8 110.906 7.88 111.426 8.04C111.959 8.18667 112.439 8.41333 112.866 8.72C113.306 9.02667 113.652 9.40667 113.906 9.86C114.172 10.3 114.306 10.8133 114.306 11.4C114.306 11.8667 114.192 12.3 113.966 12.7C113.752 13.0867 113.466 13.4267 113.106 13.72C112.746 14 112.352 14.2267 111.926 14.4C112.446 14.5733 112.919 14.84 113.346 15.2C113.786 15.5467 114.132 15.96 114.386 16.44C114.652 16.92 114.786 17.46 114.786 18.06ZM113.406 17.96C113.406 17.48 113.299 17.06 113.086 16.7C112.886 16.3267 112.606 16.0133 112.246 15.76C111.899 15.5067 111.512 15.3133 111.086 15.18C110.672 15.0467 110.252 14.98 109.826 14.98C109.252 14.98 108.692 15.1067 108.146 15.36C107.612 15.6 107.172 15.9467 106.826 16.4C106.492 16.84 106.326 17.3667 106.326 17.98C106.326 18.4467 106.426 18.86 106.626 19.22C106.839 19.58 107.119 19.8933 107.466 20.16C107.812 20.4133 108.192 20.6067 108.606 20.74C109.032 20.8733 109.459 20.94 109.886 20.94C110.459 20.94 111.012 20.82 111.546 20.58C112.092 20.3267 112.539 19.9733 112.886 19.52C113.232 19.0667 113.406 18.5467 113.406 17.96ZM106.786 11.48C106.786 11.9867 106.939 12.4267 107.246 12.8C107.566 13.16 107.966 13.4333 108.446 13.62C108.926 13.8067 109.392 13.9 109.846 13.9C110.326 13.9 110.799 13.8067 111.266 13.62C111.746 13.42 112.139 13.14 112.446 12.78C112.766 12.4067 112.926 11.96 112.926 11.44C112.926 10.9333 112.779 10.5 112.486 10.14C112.192 9.78 111.806 9.50667 111.326 9.32C110.859 9.13333 110.359 9.04 109.826 9.04C109.319 9.04 108.826 9.14 108.346 9.34C107.879 9.52667 107.499 9.80667 107.206 10.18C106.926 10.54 106.786 10.9733 106.786 11.48ZM126.641 18.06C126.641 18.8867 126.408 19.6067 125.941 20.22C125.488 20.8333 124.881 21.3133 124.121 21.66C123.375 21.9933 122.555 22.16 121.661 22.16C120.715 22.16 119.875 21.9733 119.141 21.6C118.408 21.2133 117.828 20.7067 117.401 20.08C116.988 19.4533 116.781 18.7533 116.781 17.98C116.781 17.38 116.921 16.84 117.201 16.36C117.495 15.8667 117.855 15.4533 118.281 15.12C118.721 14.7867 119.168 14.5467 119.621 14.4C119.208 14.2267 118.821 14 118.461 13.72C118.101 13.4267 117.815 13.0867 117.601 12.7C117.388 12.3133 117.281 11.8867 117.281 11.42C117.281 10.8333 117.408 10.32 117.661 9.88C117.928 9.42667 118.275 9.04667 118.701 8.74C119.128 8.42 119.601 8.18667 120.121 8.04C120.655 7.88 121.188 7.8 121.721 7.8C122.241 7.8 122.761 7.88 123.281 8.04C123.815 8.18667 124.295 8.41333 124.721 8.72C125.161 9.02667 125.508 9.40667 125.761 9.86C126.028 10.3 126.161 10.8133 126.161 11.4C126.161 11.8667 126.048 12.3 125.821 12.7C125.608 13.0867 125.321 13.4267 124.961 13.72C124.601 14 124.208 14.2267 123.781 14.4C124.301 14.5733 124.775 14.84 125.201 15.2C125.641 15.5467 125.988 15.96 126.241 16.44C126.508 16.92 126.641 17.46 126.641 18.06ZM125.261 17.96C125.261 17.48 125.155 17.06 124.941 16.7C124.741 16.3267 124.461 16.0133 124.101 15.76C123.755 15.5067 123.368 15.3133 122.941 15.18C122.528 15.0467 122.108 14.98 121.681 14.98C121.108 14.98 120.548 15.1067 120.001 15.36C119.468 15.6 119.028 15.9467 118.681 16.4C118.348 16.84 118.181 17.3667 118.181 17.98C118.181 18.4467 118.281 18.86 118.481 19.22C118.695 19.58 118.975 19.8933 119.321 20.16C119.668 20.4133 120.048 20.6067 120.461 20.74C120.888 20.8733 121.315 20.94 121.741 20.94C122.315 20.94 122.868 20.82 123.401 20.58C123.948 20.3267 124.395 19.9733 124.741 19.52C125.088 19.0667 125.261 18.5467 125.261 17.96ZM118.641 11.48C118.641 11.9867 118.795 12.4267 119.101 12.8C119.421 13.16 119.821 13.4333 120.301 13.62C120.781 13.8067 121.248 13.9 121.701 13.9C122.181 13.9 122.655 13.8067 123.121 13.62C123.601 13.42 123.995 13.14 124.301 12.78C124.621 12.4067 124.781 11.96 124.781 11.44C124.781 10.9333 124.635 10.5 124.341 10.14C124.048 9.78 123.661 9.50667 123.181 9.32C122.715 9.13333 122.215 9.04 121.681 9.04C121.175 9.04 120.681 9.14 120.201 9.34C119.735 9.52667 119.355 9.80667 119.061 10.18C118.781 10.54 118.641 10.9733 118.641 11.48Z" fill="white"/>
</svg>
